<svg width="59" height="59" viewBox="0 0 59 59" fill="none" xmlns="http://www.w3.org/2000/svg">
<path d="M0 17.2988H17.2988V0H13.6154V13.6154H0V17.2988Z" fill="#717171"/>
<path d="M0 41.7012V45.3846H13.6154V59H17.2988V41.7012H0Z" fill="#717171"/>
<path d="M59 41.7012V45.3846H45.3846V59H41.7012V41.7012H59Z" fill="#717171"/>
<path d="M59 17.2988V13.6154H45.3846V0H41.7012V17.2988H59Z" fill="#717171"/>
<path d="M4.53846 32.6243H20.4231C24.1829 32.6243 26.3757 34.8171 26.3757 38.5769V54.4615H22.6923V38.5769C22.6923 37.3237 21.6763 36.3077 20.4231 36.3077H4.53846V32.6243Z" fill="#717171"/>
<path d="M38.5769 32.6243H54.4615V36.3077H38.5769C37.3237 36.3077 36.3077 37.3237 36.3077 38.5769V54.4615H32.6243V38.5769C32.6243 34.8171 34.8171 32.6243 38.5769 32.6243Z" fill="#717171"/>
<path d="M4.53846 26.3757H20.4231C24.1829 26.3757 26.3757 24.1829 26.3757 20.4231V4.53846H22.6923V20.4231C22.6923 21.6763 21.6763 22.6923 20.4231 22.6923H4.53846V26.3757Z" fill="#717171"/>
<path d="M38.5769 26.3757H54.4615V22.6923H38.5769C37.3237 22.6923 36.3077 21.6763 36.3077 20.4231V4.53846H32.6243V20.4231C32.6243 24.1829 34.8171 26.3757 38.5769 26.3757Z" fill="#717171"/>
</svg>
