<svg width="60" height="59" viewBox="0 0 60 59" fill="none" xmlns="http://www.w3.org/2000/svg">
<path fill-rule="evenodd" clip-rule="evenodd" d="M21.2461 46.1684C30.7447 45.0847 38.1231 37.0194 38.1231 27.2307C38.1231 22.5187 36.4134 18.2061 33.5804 14.8793C33.5833 14.7609 33.5847 14.6422 33.5847 14.5231C33.5847 6.5022 27.0825 0 19.0617 0C11.0408 0 4.53857 6.5022 4.53857 14.5231C4.53857 14.6421 4.54001 14.7607 4.54285 14.879C1.70981 18.2059 0 22.5186 0 27.2307C0 37.1458 7.57024 45.2928 17.2461 46.2069V59H21.2461V46.1684ZM21.2461 24.8191C25.4365 23.9345 28.7074 20.5563 29.4337 16.3097C26.7328 13.7437 23.0811 12.1692 19.0615 12.1692C15.0421 12.1692 11.3904 13.7437 8.68959 16.3095C9.43698 20.68 12.8797 24.1307 17.2461 24.8901V19.0615H21.2461V24.8191ZM17.2461 28.9338C12.0496 28.2857 7.70563 24.8922 5.71162 20.2506C4.61838 22.3372 4 24.7117 4 27.2307C4 34.9346 9.78387 41.2875 17.2461 42.184L17.2461 28.9338ZM21.2461 42.135L21.2461 28.883C26.2787 28.1238 30.4649 24.7821 32.4116 20.2508C33.5047 22.3374 34.1231 24.7118 34.1231 27.2307C34.1231 34.8071 28.5291 41.0768 21.2461 42.135ZM19.0615 8.16919C22.6853 8.16919 26.0729 9.1804 28.9575 10.936C27.4908 6.8904 23.6138 4 19.0617 4C14.5096 4 10.6326 6.89031 9.16583 10.9359C12.0504 9.18033 15.4379 8.16919 19.0615 8.16919Z" fill="#717171"/>
<path d="M37.6768 51.0154C36.0199 51.0154 34.6768 52.3585 34.6768 54.0154V59H30.6768V54.0154C30.6768 50.1494 33.8108 47.0154 37.6768 47.0154H41.5693V42.4001C41.5693 37.4296 45.5988 33.4001 50.5693 33.4001H59.9078V37.4001H50.5693C47.8079 37.4001 45.5693 39.6387 45.5693 42.4001V47.0154H59.9075V51.0154H37.6768Z" fill="#717171"/>
</svg>
