<svg width="40" height="39" viewBox="0 0 40 39" fill="none" xmlns="http://www.w3.org/2000/svg">
<path fill-rule="evenodd" clip-rule="evenodd" d="M18.9111 0.0320474C13.9086 0.33875 9.31381 2.4669 5.86073 6.07671C3.04341 9.02178 1.23123 12.7772 0.647025 16.8811C0.452463 18.2479 0.450726 20.7756 0.643462 22.1284C0.941477 24.2206 1.48613 26.0245 2.38574 27.8996C4.34874 31.9912 7.50442 35.1445 11.6086 37.1155C14.2549 38.3864 17.025 39.0023 20.0848 39C25.2943 38.996 30.0646 37.0084 33.7843 33.292C36.8508 30.2282 38.7291 26.4696 39.3503 22.154C39.5302 20.9047 39.5522 18.3583 39.3933 17.1724C38.6161 11.368 35.5563 6.42954 30.7655 3.24769C29.7643 2.58269 28.1557 1.73789 27.1266 1.33651C24.5737 0.340922 21.5931 -0.132378 18.9111 0.0320474ZM18.2157 4.37556C13.7327 4.93364 9.66424 7.48202 7.18206 11.2868C6.21855 12.7638 5.44196 14.6688 5.03075 16.5643C4.85645 17.368 4.83289 17.719 4.83289 19.5176C4.83289 21.7972 4.93347 22.4872 5.52915 24.2949C7.082 29.0071 11.0134 32.7698 15.8321 34.1556C17.2063 34.5507 18.4287 34.7184 19.922 34.7165C23.0989 34.7124 25.8498 33.8795 28.4741 32.1271C32.669 29.326 35.2029 24.5979 35.21 19.5588C35.212 18.1353 35.1049 17.2437 34.7669 15.8695C34.0969 13.1451 32.7931 10.843 30.7805 8.83017C29.5906 7.64028 28.6804 6.94314 27.3439 6.19788C25.0333 4.90967 22.6062 4.30416 19.8563 4.33013C19.0974 4.33726 18.3591 4.35776 18.2157 4.37556ZM23.2585 17.2647L18.9233 21.6133L16.6127 19.3057L14.3019 16.9982L12.9773 18.3237L11.6526 19.6493L15.2988 23.2915L18.945 26.9337L24.6575 21.2407L30.37 15.5478L29.0492 14.232C28.3228 13.5084 27.6981 12.9162 27.661 12.9162C27.624 12.9162 25.6428 14.873 23.2585 17.2647Z" fill="#D3D3D3"/>
</svg>
