<svg width="59" height="59" viewBox="0 0 59 59" fill="none" xmlns="http://www.w3.org/2000/svg">
<path fill-rule="evenodd" clip-rule="evenodd" d="M29.3886 36C35.0821 36 39.6977 31.3195 39.6977 26C39.6977 20.6805 35.0821 15.8657 29.3886 15.8657C23.695 15.8657 19.0795 20.6805 19.0795 26C19.0795 31.3195 23.695 36 29.3886 36ZM29.3886 32.3125C32.9225 32.3125 35.7643 29.2711 35.7643 26C35.7643 22.7289 32.9225 19.5532 29.3886 19.5532C25.8547 19.5532 23.0128 22.7289 23.0128 26C23.0128 29.2711 25.8547 32.3125 29.3886 32.3125Z" fill="#717171"/>
<path fill-rule="evenodd" clip-rule="evenodd" d="M0 0V49.9563H20.4253C25.0675 55.5009 29.3887 59 29.3887 59C29.3887 59 33.6357 55.4729 38.2321 49.9563H59V0H0ZM41.5 46H55.0667V4H3.93333V46H17.5C13.1088 39.9644 9.21875 32.6099 9.21875 24.6603C9.21875 14.2525 18.2492 5.81529 29.3887 5.81529C40.5283 5.81529 49.5587 14.2525 49.5587 24.6603C49.5587 32.499 45.9415 39.9026 41.5 46ZM36.3123 46.232C41.2081 40.0313 45.6254 32.246 45.6254 24.6603C45.6254 16.3009 38.3687 9.50279 29.3887 9.50279C20.4088 9.50279 13.1521 16.3009 13.1521 24.6603C13.1521 32.4636 17.5799 40.2524 22.4559 46.3773C24.8483 49.3825 27.248 51.8619 29.0491 53.5883C29.1553 53.6901 29.2593 53.7892 29.3611 53.8855C29.4726 53.778 29.5869 53.6672 29.7039 53.5531C31.5096 51.791 33.9147 49.2685 36.3123 46.232Z" fill="#717171"/>
</svg>
