<svg width="35" height="35" viewBox="0 0 35 35" fill="none" xmlns="http://www.w3.org/2000/svg">
<path fill-rule="evenodd" clip-rule="evenodd" d="M35 17.5C35 27.1649 27.1649 35 17.5 35C7.83501 35 0 27.1649 0 17.5C0 7.83501 7.83501 0 17.5 0C27.1649 0 35 7.83501 35 17.5ZM18.127 12.9193C16.425 13.6272 13.0231 15.0925 7.9215 17.3152C7.09306 17.6447 6.6591 17.9671 6.6196 18.2821C6.55284 18.8148 7.21978 19.0244 8.12796 19.31C8.25151 19.3489 8.37951 19.3891 8.51072 19.4317C9.40424 19.7222 10.6062 20.062 11.231 20.0755C11.7978 20.0877 12.4304 19.8541 13.1288 19.3744C17.8955 16.1569 20.356 14.5306 20.5103 14.4954C20.6194 14.4707 20.7704 14.4396 20.8728 14.5306C20.9752 14.6216 20.965 14.7938 20.9541 14.84C20.8882 15.1217 18.2702 17.5556 16.9153 18.8151C16.493 19.2078 16.1935 19.4862 16.1322 19.5499C15.995 19.6924 15.8552 19.8272 15.7208 19.9566C14.8908 20.7569 14.2681 21.357 15.7553 22.337C16.47 22.8079 17.0417 23.1973 17.6122 23.5858C18.2352 24.0102 18.8566 24.4333 19.6607 24.9604C19.8655 25.0947 20.0611 25.2341 20.2517 25.3699C20.9767 25.8869 21.6281 26.3513 22.4329 26.2771C22.9005 26.2342 23.3835 25.7945 23.6289 24.483C24.2086 21.3838 25.3482 14.6685 25.6116 11.9014C25.6347 11.659 25.6056 11.3487 25.5824 11.2125C25.5589 11.0763 25.5103 10.8822 25.3332 10.7386C25.1235 10.5684 24.7999 10.5326 24.6551 10.535C23.9969 10.5467 22.9869 10.8979 18.127 12.9193Z" fill="white"/>
</svg>
